# Blender3D v249 OBJ File: sm2.blend
# www.blender3d.org
v -0.000000 -0.256159 0.133094
v 0.094112 -0.256159 0.094112
v 0.133094 -0.256159 0.000000
v 0.094112 -0.256159 -0.094112
v -0.000000 -0.256159 -0.133094
v -0.094112 -0.256159 -0.094112
v -0.133094 -0.256159 0.000000
v -0.094112 -0.256159 0.094112
v -0.197391 -2.380275 0.197391
v -0.279153 -2.380275 0.000000
v -0.197391 -2.380275 -0.197391
v 0.000000 -2.380275 -0.279153
v 0.197391 -2.380275 -0.197391
v 0.279153 -2.380275 0.000000
v 0.197391 -2.380275 0.197391
v -0.000000 -2.380275 0.279153
v 0.000000 -2.380275 0.000000
v -0.000000 -0.518026 0.279153
v 0.197391 -0.518026 0.197391
v 0.279153 -0.518026 0.000000
v 0.197391 -0.518026 -0.197391
v 0.000000 -0.518026 -0.279153
v -0.197391 -0.518026 -0.197391
v -0.279153 -0.518026 0.000000
v -0.197391 -0.518026 0.197391
v -0.094112 -0.256159 0.094112
v -0.133094 -0.256159 0.000000
v -0.094112 -0.256159 -0.094112
v -0.000000 -0.256159 -0.133094
v 0.094112 -0.256159 -0.094112
v 0.133094 -0.256159 0.000000
v 0.094112 -0.256159 0.094112
v -0.000000 -0.256159 0.133094
v -0.000000 -0.256159 0.000000
v 0.223289 2.219697 0.000000
v 0.000000 2.016110 -0.021443
v -0.000000 2.016110 0.021443
v 0.000000 -0.101492 0.000000
v 0.292441 2.016110 0.000000
v 0.000000 -0.101492 -0.021443
v -0.000000 -0.101492 0.021443
v 0.223289 2.713253 0.000000
v 0.292441 0.336655 0.000000
v 0.000000 0.016810 0.020817
v -0.000000 0.016810 -0.020817
v 0.389243 0.016810 0.000000
v 0.000000 -0.237954 0.020817
v -0.000000 -0.237954 -0.020817
v 0.081062 0.170715 0.000000
v 0.204335 -0.198731 0.000000
v -0.389243 0.016810 -0.000000
v -0.000000 0.170715 -0.020817
v 0.000001 0.170715 0.020817
v -0.081062 0.170715 -0.000000
v -0.204335 -0.198731 -0.000000
v -0.223289 2.219697 -0.000000
v 0.000000 2.913022 -0.000000
v -0.292441 2.016110 -0.000000
v -0.000000 2.913022 0.021443
v 0.000001 2.913022 -0.021443
v -0.223289 2.713253 -0.000000
v -0.292441 0.336655 -0.000000
v 0.000000 2.219697 -0.223289
v -0.021443 2.016110 -0.000000
v 0.021443 2.016110 0.000000
v 0.000000 -0.101492 -0.000000
v 0.000000 2.016110 -0.292441
v -0.021443 -0.101492 -0.000000
v 0.021443 -0.101492 0.000000
v 0.000000 2.713253 -0.223289
v 0.000000 0.336655 -0.292441
v 0.020817 0.016810 -0.000000
v -0.020817 0.016810 0.000000
v 0.000000 0.016810 -0.389243
v 0.020817 -0.237954 -0.000000
v -0.020817 -0.237954 0.000000
v 0.000000 0.170715 -0.081062
v 0.000000 -0.198731 -0.204335
v -0.000000 0.016810 0.389243
v -0.020817 0.170715 0.000000
v 0.020817 0.170715 -0.000001
v -0.000000 0.170715 0.081062
v -0.000000 -0.198731 0.204335
v -0.000000 2.219697 0.223289
v -0.000000 2.913022 -0.000000
v -0.000000 2.016110 0.292441
v 0.021443 2.913022 0.000000
v -0.021443 2.913022 -0.000001
v -0.000000 2.713253 0.223289
v -0.000000 0.336655 0.292441
v -0.000000 -0.256159 0.133094
v 0.094112 -0.256159 0.094112
v 0.133094 -0.256159 0.000000
v 0.094112 -0.256159 -0.094112
v -0.000000 -0.256159 -0.133094
v -0.094112 -0.256159 -0.094112
v -0.133094 -0.256159 0.000000
v -0.094112 -0.256159 0.094112
v -0.000000 -0.256159 0.000000
v -0.122553 3.421377 0.122552
v -0.173315 3.421377 -0.000000
v -0.122553 3.421377 -0.122553
v 0.000000 3.421377 -0.173316
v 0.122553 3.421377 -0.122553
v 0.173315 3.421377 -0.000000
v 0.122553 3.421377 0.122552
v 0.000000 3.421377 0.173315
v -0.122552 3.074746 0.122552
v -0.173315 3.074746 -0.000000
v -0.122553 3.074746 -0.122553
v 0.000000 3.074746 -0.173316
v 0.122553 3.074746 -0.122553
v 0.173315 3.074746 -0.000000
v 0.122552 3.074746 0.122553
v -0.000000 3.074746 0.173315
v 0.000000 3.786237 0.157328
v 0.111248 3.786237 0.111248
v 0.157328 3.786237 -0.000000
v 0.111248 3.786237 -0.111248
v 0.000000 3.786237 -0.157328
v -0.111248 3.786237 -0.111248
v -0.157328 3.786237 -0.000000
v -0.111248 3.786237 0.111248
v -0.087652 4.000289 0.087652
v -0.123959 4.000289 -0.000000
v -0.087652 4.000289 -0.087652
v 0.000000 4.000289 -0.123959
v 0.087652 4.000289 -0.087652
v 0.123959 4.000289 -0.000000
v 0.087652 4.000289 0.087652
v 0.000000 4.000289 0.123959
v 0.000000 4.185152 0.064656
v 0.045719 4.185152 0.045719
v 0.064656 4.185152 -0.000000
v 0.045719 4.185152 -0.045719
v 0.000000 4.185152 -0.064656
v -0.045719 4.185152 -0.045719
v -0.064656 4.185152 -0.000000
v -0.045719 4.185152 0.045719
v 0.000000 4.316502 -0.000000
v -0.000000 0.106741 0.173315
v 0.122552 0.106741 0.122553
v 0.173315 0.106741 0.000000
v 0.122553 0.106741 -0.122553
v 0.000000 0.106741 -0.173315
v -0.122553 0.106741 -0.122553
v -0.173315 0.106741 0.000000
v -0.122552 0.106741 0.122553
vt 0.424844 0.013312
vt 0.539637 0.013312
vt 0.654431 0.013312
vt 0.701980 0.013312
vt 0.377295 0.013312
vt 0.539637 0.322134
vt 0.484906 0.322134
vt 0.594368 0.322134
vt 0.617039 0.322134
vt 0.462236 0.322134
vt 0.669492 0.682095
vt 0.539638 0.652496
vt 0.709707 0.652496
vt 0.539638 0.782896
vt 0.669492 0.753852
vt 0.539637 0.782896
vt 0.539637 0.652496
vt 0.709707 0.408322
vt 0.539638 0.344621
vt 0.539637 0.344621
vt 0.658469 0.330483
vt 0.539637 0.324781
vt 0.539638 0.324781
vt 0.420806 0.330483
vt 0.409783 0.682095
vt 0.369568 0.652496
vt 0.409783 0.753852
vt 0.369567 0.408322
vt 0.513050 0.967849
vt 0.539637 0.967849
vt 0.539637 0.986946
vt 0.566225 0.967849
vt 0.577239 0.967849
vt 0.502037 0.967849
vt 0.468366 0.374896
vt 0.438845 0.374896
vt 0.539637 0.374896
vt 0.610908 0.374896
vt 0.640430 0.374896
vt 0.539637 0.806409
vt 0.468366 0.806409
vt 0.610908 0.806409
vt 0.640430 0.806409
vt 0.438845 0.806409
vt 0.488663 0.940972
vt 0.539637 0.940972
vt 0.590612 0.940972
vt 0.611726 0.940972
vt 0.467549 0.940972
vt 0.448143 0.909852
vt 0.474941 0.909852
vt 0.539637 0.909852
vt 0.604334 0.909852
vt 0.631132 0.909852
vt 0.468367 0.856805
vt 0.539637 0.856805
vt 0.610908 0.856805
vt 0.640430 0.856805
vt 0.438845 0.856805
vt 0.313272 0.361820
vt 0.492495 0.384197
vt 0.539638 0.361820
vt 0.539638 0.384197
vt 0.539637 0.361820
vt 0.539637 0.384197
vt 0.766003 0.361820
vt 0.586780 0.384197
vt 0.424844 0.284061
vt 0.539637 0.284061
vt 0.654431 0.284061
vt 0.701980 0.284061
vt 0.377295 0.284061
vn 0.000000 1.000000 0.000000
vn 0.000000 -1.000000 0.000000
vn 0.346995 -0.871273 -0.346995
vn 0.587756 -0.804926 -0.081149
vn 0.472976 -0.804926 0.358226
vn 0.000000 -0.759209 0.650807
vn -0.472976 -0.804926 0.358196
vn -0.587756 -0.804926 -0.081149
vn -0.358196 -0.804926 -0.472976
vn 0.081149 -0.804926 -0.587756
vn -0.073106 -0.024832 0.997015
vn -0.095594 0.000000 0.995420
vn -0.095594 0.000000 0.995421
vn -0.095592 -0.000000 -0.995421
vn -0.073105 -0.024832 -0.997015
vn -0.095593 -0.000000 -0.995421
vn -0.666766 -0.745267 -0.000011
vn -0.831750 0.555150 -0.000007
vn -0.188513 0.982071 0.000002
vn 0.188513 0.982071 -0.000002
vn 0.073107 -0.024832 -0.997015
vn 0.095593 -0.000000 -0.995420
vn 0.095594 -0.000000 -0.995420
vn 0.095593 0.000000 0.995420
vn 0.073105 -0.024831 0.997015
vn 0.095592 0.000000 0.995421
vn 0.666765 -0.745268 0.000011
vn 0.831750 0.555150 0.000007
vn 0.997015 -0.024832 0.073106
vn 0.995420 -0.000000 0.095594
vn 0.995421 0.000000 0.095593
vn -0.995421 -0.000000 0.095592
vn -0.997015 -0.024832 0.073106
vn -0.995421 -0.000000 0.095593
vn -0.000011 -0.745267 0.666766
vn -0.000007 0.555150 0.831750
vn 0.000002 0.982071 0.188513
vn -0.000002 0.982071 -0.188513
vn -0.997015 -0.024832 -0.073107
vn -0.995420 -0.000000 -0.095593
vn -0.995420 -0.000000 -0.095594
vn 0.995421 -0.000000 -0.095593
vn 0.997015 -0.024831 -0.073105
vn 0.995421 0.000000 -0.095592
vn 0.000011 -0.745268 -0.666765
vn 0.000007 0.555150 -0.831750
vn 0.601764 -0.359996 -0.712912
vn 0.929624 -0.359996 -0.078585
vn 0.712912 -0.359996 0.601764
vn 0.078585 -0.359996 0.929624
vn -0.661855 -0.351909 0.661855
vn -0.927091 -0.374798 0.000000
vn -0.712912 -0.359996 -0.601764
vn -0.078585 -0.359996 -0.929624
vn 0.380693 0.101864 -0.919074
vn -0.380692 0.101864 -0.919074
vn -0.919073 0.101864 -0.380694
vn -0.919074 0.101864 -0.380693
vn -0.919074 0.101864 0.380692
vn -0.380693 0.101864 0.919074
vn 0.380693 0.101864 0.919074
vn 0.919074 0.101864 0.380692
vn 0.919074 0.101864 -0.380693
vn 0.923879 -0.000000 -0.382684
vn 0.923880 0.000000 0.382683
vn 0.382684 0.000000 0.923879
vn -0.382684 0.000000 0.923879
vn -0.923880 0.000000 0.382683
vn -0.923879 -0.000000 -0.382684
vn -0.382682 -0.000000 -0.923880
vn 0.382684 -0.000000 -0.923879
vn 0.686514 -0.230628 -0.689535
vn 0.973022 -0.230628 -0.002136
vn 0.689535 -0.230628 0.686514
vn 0.002136 -0.230628 0.973022
vn -0.630451 -0.214698 0.745933
vn -0.968749 -0.241035 0.058351
vn -0.689535 -0.230628 -0.686514
vn -0.002136 -0.230628 -0.973022
vn -0.000641 -0.099094 -0.995056
vn 0.703146 -0.099094 -0.704062
vn -0.704062 -0.099094 -0.703146
vn -0.995056 -0.099094 0.000641
vn -0.758232 -0.109745 0.642628
vn -0.058504 -0.091037 0.994110
vn 0.704062 -0.099094 0.703146
vn 0.995056 -0.099094 -0.000641
vn 0.747490 -0.018708 -0.663991
vn 0.990356 -0.021668 0.136723
vn 0.603595 -0.021668 0.796960
vn -0.082553 -0.017426 0.996429
vn -0.747398 -0.024964 0.663869
vn -0.996246 -0.026154 -0.082492
vn -0.706961 -0.021882 -0.706870
vn -0.000031 -0.021882 -0.999756
vn 0.646290 0.000000 -0.763054
vn 0.000000 0.000000 -1.000000
vn -0.707083 0.000000 -0.707083
vn -0.998230 0.000000 0.059053
vn -0.603748 0.000000 0.797174
vn 0.136753 0.000000 0.990600
vn 0.797174 0.000000 0.603748
vn 0.990600 0.000000 -0.136753
vn 0.997323 0.000000 -0.073127
vn -0.997322 0.000000 -0.073129
vn -0.992912 -0.106330 -0.053101
vn -0.968574 -0.000002 -0.248726
vn -0.997527 0.045766 -0.053348
vn -0.994851 0.000000 -0.101352
vn 0.968573 0.000001 -0.248728
vn 0.992912 -0.106328 -0.053100
vn 0.997527 0.045765 -0.053347
vn 0.994851 0.000000 -0.101350
vn 0.992912 -0.106329 0.053101
vn 0.968573 0.000001 0.248729
vn 0.997527 0.045766 0.053348
vn 0.994851 -0.000000 0.101351
vn -0.968574 -0.000001 0.248727
vn -0.992912 -0.106329 0.053101
vn -0.997527 0.045766 0.053348
vn -0.994851 -0.000000 0.101351
vn -0.997323 -0.000000 0.073128
vn 0.997323 -0.000000 0.073128
vn 0.997322 0.000000 0.073128
vn 0.073127 0.000000 0.997323
vn 0.073129 -0.000000 -0.997322
vn 0.053101 -0.106330 -0.992912
vn 0.248726 -0.000002 -0.968574
vn 0.053348 0.045766 -0.997527
vn 0.101352 -0.000000 -0.994851
vn 0.248728 0.000001 0.968573
vn 0.053100 -0.106328 0.992912
vn 0.053347 0.045765 0.997527
vn 0.101350 0.000000 0.994851
vn -0.053101 -0.106329 0.992912
vn -0.248729 0.000001 0.968573
vn -0.053348 0.045766 0.997527
vn -0.101351 0.000000 0.994851
vn -0.248727 -0.000001 -0.968574
vn -0.053101 -0.106329 -0.992912
vn -0.053348 0.045766 -0.997527
vn -0.101351 -0.000000 -0.994851
vn -0.073128 -0.000000 -0.997323
vn -0.073128 0.000000 0.997323
vn 0.718253 -0.289010 -0.632893
vn 0.958708 -0.251625 0.132359
vn 0.584307 -0.251625 0.771508
vn -0.084567 -0.202460 0.975616
vn -0.689444 -0.253853 0.678335
vn -0.967193 -0.253853 -0.007843
vn -0.678335 -0.253853 -0.689444
vn 0.007843 -0.253853 -0.967193
vn -0.382683 -0.000000 -0.923880
vn 0.382683 0.000000 0.923879
usemtl Material_skin.png
s off
f 9/1/1 17/2/1 10/2/1
f 10/2/1 17/2/1 11/3/1
f 11/3/1 17/2/1 12/4/1
f 12/4/1 17/2/1 13/3/1
f 13/3/1 17/2/1 14/2/1
f 14/2/1 17/2/1 15/1/1
f 15/1/1 17/2/1 16/5/1
f 16/5/1 17/2/1 9/1/1
s 1
f 34/6/2 26/7/3 27/6/4
f 34/6/2 27/6/4 28/8/5
f 34/6/2 28/8/5 29/9/6
f 34/6/2 29/9/6 30/8/7
f 34/6/2 30/8/7 31/6/8
f 34/6/2 31/6/8 32/7/9
f 34/6/2 32/7/9 33/10/10
f 34/6/2 33/10/10 26/7/3
usemtl Material.002_skin.png
s off
f 35/11/11 36/12/11 39/13/11
f 60/14/12 35/11/12 42/15/12
f 35/11/13 60/14/13 36/12/13
f 35/11/14 59/16/14 42/15/14
f 37/17/15 35/11/15 39/13/15
f 35/11/16 37/17/16 59/16/16
f 42/15/17 59/16/17 57/16/17
f 42/15/17 57/16/17 60/14/17
f 43/18/18 40/19/18 38/19/18
f 43/18/18 38/19/18 41/20/18
f 50/21/19 48/22/19 47/23/19
f 55/24/20 47/23/20 48/22/20
f 56/25/21 37/17/21 58/26/21
f 61/27/22 59/16/22 56/25/22
f 56/25/23 59/16/23 37/17/23
f 56/25/24 60/14/24 61/27/24
f 58/26/25 36/12/25 56/25/25
f 56/25/26 36/12/26 60/14/26
f 61/27/27 60/14/27 57/14/27
f 61/27/27 57/14/27 59/16/27
f 62/28/28 41/20/28 38/20/28
f 62/28/28 38/20/28 40/19/28
usemtl Material.003_skin.png
f 63/11/29 64/12/29 67/13/29
f 88/14/30 63/11/30 70/15/30
f 63/11/31 88/14/31 64/12/31
f 63/11/32 87/16/32 70/15/32
f 65/17/33 63/11/33 67/13/33
f 63/11/34 65/17/34 87/16/34
f 70/15/35 87/16/35 85/16/35
f 70/15/35 85/16/35 88/14/35
f 71/18/36 68/19/36 66/19/36
f 71/18/36 66/19/36 69/20/36
f 78/21/37 76/22/37 75/23/37
f 83/24/38 75/23/38 76/22/38
f 84/25/39 65/17/39 86/26/39
f 89/27/40 87/16/40 84/25/40
f 84/25/41 87/16/41 65/17/41
f 84/25/42 88/14/42 89/27/42
f 86/26/43 64/12/43 84/25/43
f 84/25/44 64/12/44 88/14/44
f 89/27/45 88/14/45 85/14/45
f 89/27/45 85/14/45 87/16/45
f 90/28/46 69/20/46 66/20/46
f 90/28/46 66/20/46 68/19/46
usemtl Material.001_skin.png
f 99/6/1 97/6/1 98/7/1
f 99/6/1 96/8/1 97/6/1
f 99/6/1 95/9/1 96/8/1
f 99/6/1 94/8/1 95/9/1
f 99/6/1 93/6/1 94/8/1
f 99/6/1 92/7/1 93/6/1
f 99/6/1 91/10/1 92/7/1
f 98/7/1 91/10/1 99/6/1
s 1
f 139/29/47 138/30/48 140/31/2
f 138/30/48 137/32/49 140/31/2
f 137/32/49 136/33/50 140/31/2
f 136/33/50 135/32/51 140/31/2
f 135/32/51 134/30/52 140/31/2
f 134/30/52 133/29/53 140/31/2
f 133/29/53 132/34/54 140/31/2
f 132/34/54 139/29/47 140/31/2
s off
f 91/10/55 98/7/55 148/35/55
f 91/10/55 148/35/55 141/36/55
f 92/7/56 91/10/56 141/36/56
f 92/7/56 141/36/56 142/35/56
f 142/35/57 143/37/57 93/6/57
f 142/35/58 93/6/58 92/7/58
f 143/37/59 144/38/59 94/8/59
f 143/37/59 94/8/59 93/6/59
f 144/38/60 145/39/60 95/9/60
f 144/38/60 95/9/60 94/8/60
f 145/39/61 146/38/61 96/8/61
f 145/39/61 96/8/61 95/9/61
f 146/38/62 147/37/62 97/6/62
f 146/38/62 97/6/62 96/8/62
f 147/37/63 148/35/63 98/7/63
f 147/37/63 98/7/63 97/6/63
f 109/40/64 108/41/64 148/35/64
f 109/40/64 148/35/64 147/37/64
f 110/42/65 109/40/65 147/37/65
f 110/42/65 147/37/65 146/38/65
f 111/43/66 110/42/66 146/38/66
f 111/43/66 146/38/66 145/39/66
f 112/42/67 111/43/67 145/39/67
f 112/42/67 145/39/67 144/38/67
f 113/40/68 112/42/68 144/38/68
f 113/40/68 144/38/68 143/37/68
f 114/41/69 113/40/69 143/37/69
f 114/41/69 143/37/69 142/35/69
f 115/44/70 114/41/70 142/35/70
f 115/44/70 142/35/70 141/36/70
f 108/41/71 115/44/71 141/36/71
f 108/41/71 141/36/71 148/35/71
s 1
f 124/45/72 125/46/73 138/30/48
f 124/45/72 138/30/48 139/29/47
f 125/46/73 126/47/74 137/32/49
f 125/46/73 137/32/49 138/30/48
f 126/47/74 127/48/75 136/33/50
f 126/47/74 136/33/50 137/32/49
f 127/48/75 128/47/76 135/32/51
f 127/48/75 135/32/51 136/33/50
f 128/47/76 129/46/77 135/32/51
f 129/46/77 134/30/52 135/32/51
f 129/46/77 130/45/78 133/29/53
f 129/46/77 133/29/53 134/30/52
f 130/45/78 131/49/79 132/34/54
f 130/45/78 132/34/54 133/29/53
f 131/49/79 124/45/72 139/29/47
f 131/49/79 139/29/47 132/34/54
f 116/50/80 123/51/81 124/45/72
f 116/50/80 124/45/72 131/49/79
f 117/51/82 116/50/80 131/49/79
f 117/51/82 131/49/79 130/45/78
f 118/52/83 117/51/82 130/45/78
f 118/52/83 130/45/78 129/46/77
f 119/53/84 118/52/83 129/46/77
f 119/53/84 129/46/77 128/47/76
f 120/54/85 119/53/84 128/47/76
f 120/54/85 128/47/76 127/48/75
f 121/53/86 120/54/85 127/48/75
f 121/53/86 127/48/75 126/47/74
f 122/52/87 121/53/86 126/47/74
f 122/52/87 126/47/74 125/46/73
f 123/51/81 122/52/87 125/46/73
f 123/51/81 125/46/73 124/45/72
f 100/55/88 101/56/89 122/52/87
f 100/55/88 122/52/87 123/51/81
f 101/56/89 102/57/90 121/53/86
f 101/56/89 121/53/86 122/52/87
f 102/57/90 103/58/91 120/54/85
f 102/57/90 120/54/85 121/53/86
f 103/58/91 104/57/92 120/54/85
f 104/57/92 119/53/84 120/54/85
f 104/57/92 105/56/93 118/52/83
f 104/57/92 118/52/83 119/53/84
f 105/56/93 106/55/94 117/51/82
f 105/56/93 117/51/82 118/52/83
f 106/55/94 107/59/95 116/50/80
f 106/55/94 116/50/80 117/51/82
f 107/59/95 100/55/88 123/51/81
f 107/59/95 123/51/81 116/50/80
f 108/41/96 100/55/88 115/44/97
f 100/55/88 107/59/95 115/44/97
f 106/55/94 114/41/98 107/59/95
f 114/41/98 115/44/97 107/59/95
f 105/56/93 113/40/99 106/55/94
f 113/40/99 114/41/98 106/55/94
f 104/57/92 112/42/100 113/40/99
f 104/57/92 113/40/99 105/56/93
f 103/58/91 111/43/101 112/42/100
f 103/58/91 112/42/100 104/57/92
f 102/57/90 110/42/102 111/43/101
f 102/57/90 111/43/101 103/58/91
f 101/56/89 109/40/103 110/42/102
f 101/56/89 110/42/102 102/57/90
f 100/55/88 108/41/96 109/40/103
f 100/55/88 109/40/103 101/56/89
usemtl Material.003_skin.png
s off
f 90/28/104 68/19/104 64/12/104
f 90/28/104 64/12/104 86/26/104
f 69/20/105 90/28/105 65/17/105
f 90/28/105 86/26/105 65/17/105
f 79/60/106 82/61/106 72/62/106
f 82/61/107 81/63/107 72/62/107
f 83/24/108 79/60/108 72/62/108
f 83/24/109 72/62/109 75/23/109
f 73/64/110 80/65/110 82/61/110
f 73/64/111 82/61/111 79/60/111
f 79/60/112 83/24/112 73/64/112
f 83/24/113 76/22/113 73/64/113
f 74/66/114 77/67/114 73/64/114
f 77/67/115 80/65/115 73/64/115
f 78/21/116 74/66/116 73/64/116
f 78/21/117 73/64/117 76/22/117
f 72/62/118 81/63/118 77/67/118
f 72/62/119 77/67/119 74/66/119
f 74/66/120 78/21/120 72/62/120
f 78/21/121 75/23/121 72/62/121
f 71/18/122 69/20/122 65/17/122
f 71/18/122 65/17/122 67/13/122
f 67/13/123 64/12/123 71/18/123
f 64/12/124 68/19/124 71/18/124
usemtl Material.002_skin.png
f 62/28/125 40/19/125 36/12/125
f 62/28/125 36/12/125 58/26/125
f 41/20/126 62/28/126 37/17/126
f 62/28/126 58/26/126 37/17/126
f 51/60/127 54/61/127 44/62/127
f 54/61/128 53/63/128 44/62/128
f 55/24/129 51/60/129 44/62/129
f 55/24/130 44/62/130 47/23/130
f 45/64/131 52/65/131 54/61/131
f 45/64/132 54/61/132 51/60/132
f 51/60/133 55/24/133 45/64/133
f 55/24/134 48/22/134 45/64/134
f 46/66/135 49/67/135 45/64/135
f 49/67/136 52/65/136 45/64/136
f 50/21/137 46/66/137 45/64/137
f 50/21/138 45/64/138 48/22/138
f 44/62/139 53/63/139 49/67/139
f 44/62/140 49/67/140 46/66/140
f 46/66/141 50/21/141 44/62/141
f 50/21/142 47/23/142 44/62/142
f 43/18/143 41/20/143 37/17/143
f 43/18/143 37/17/143 39/13/143
f 39/13/144 36/12/144 43/18/144
f 36/12/144 40/19/144 43/18/144
usemtl Material_skin.png
s 1
f 26/7/3 25/68/145 27/6/4
f 25/68/145 24/69/146 27/6/4
f 27/6/4 24/69/146 28/8/5
f 24/69/146 23/70/147 28/8/5
f 28/8/5 23/70/147 29/9/6
f 23/70/147 22/71/148 29/9/6
f 29/9/6 22/71/148 21/70/149
f 29/9/6 21/70/149 30/8/7
f 30/8/7 21/70/149 20/69/150
f 30/8/7 20/69/150 31/6/8
f 31/6/8 20/69/150 19/68/151
f 31/6/8 19/68/151 32/7/9
f 32/7/9 19/68/151 18/72/152
f 32/7/9 18/72/152 33/10/10
f 33/10/10 18/72/152 25/68/145
f 33/10/10 25/68/145 26/7/3
s off
f 18/72/71 16/5/71 9/1/71
f 18/72/71 9/1/71 25/68/71
f 19/68/70 15/1/70 16/5/70
f 19/68/153 16/5/153 18/72/153
f 20/69/69 14/2/69 15/1/69
f 20/69/69 15/1/69 19/68/69
f 21/70/68 13/3/68 14/2/68
f 21/70/68 14/2/68 20/69/68
f 22/71/67 12/4/67 13/3/67
f 22/71/67 13/3/67 21/70/67
f 23/70/66 11/3/66 12/4/66
f 23/70/154 12/4/154 22/71/154
f 24/69/65 10/2/65 11/3/65
f 24/69/65 11/3/65 23/70/65
f 25/68/64 9/1/64 10/2/64
f 25/68/64 10/2/64 24/69/64
